<?xml version="1.0" encoding="utf-8" ?>
<svg xmlns="http://www.w3.org/2000/svg" xmlns:xlink="http://www.w3.org/1999/xlink" width="1024" height="1024" viewBox="0 0 1024 1024">
  <path fill="#1D1E1F" d="M0 0L1024 0L1024 1024L0 1024L0 0Z"/>
  <path fill="#82F292" d="M570.345 41.2193C594.137 39.5158 627.022 45.3208 649.396 53.0619C707.983 73.3329 753.82 114.497 780.305 170.792C803.785 219.937 810.99 275.287 800.873 328.806C796.039 355.598 787.41 383.093 778.775 408.904C772.01 429.283 765.032 449.592 757.842 469.825C766.172 474.321 775.119 481.374 783.356 486.941C809.941 504.91 853.774 530.236 841.357 569.113C835.998 585.894 826.221 606.192 818.852 622.606C802.308 659.305 785.337 695.811 767.942 732.115L722.419 828.446C714.729 845.211 706.853 861.891 698.792 878.481C690.77 895.212 681.693 917.42 668.173 929.844C661.183 936.268 645.239 946.026 636.46 950.809C617.901 960.922 581.087 988.209 559.073 983.059C535.682 977.586 507.475 960.424 486.279 948.686C438.776 921.997 392.399 893.354 347.266 862.829C302.793 833.775 259.41 803.084 217.207 770.82C192.668 752.366 166.036 732.646 144.279 710.701C138.658 705.031 135.376 698.337 132.645 690.892C124.813 669.535 133.036 650.743 140.628 630.879L152.446 599.528C167.606 558.721 183.17 518.066 199.135 477.567L243.232 362.632L255.152 331.8C260.283 318.454 265.039 303.068 275.565 293.092C283.876 285.426 294.297 280.279 303.801 274.036C317.146 265.269 334.552 257.554 349.7 252.575C353.289 239.327 358.153 225.772 362.34 212.62C374.839 173.358 385.415 140.77 413.764 109.808C453.653 66.2421 512.089 43.8746 570.345 41.2193Z"/>
  <path fill="#1D1E1F" d="M254.615 371.825C284.904 386.615 316.113 400.731 346.211 415.919C379.836 432.95 412.792 451.27 445.007 470.838C456.346 477.621 468.545 484.569 479.639 491.661C494.564 501.401 509.413 511.255 524.185 521.225C590.367 565.523 653.573 613.931 721.769 655.006C716.597 666.097 712.188 677.199 706.566 688.263C680.275 673.589 654.157 656.584 628.252 641.124C619.994 636.039 612.404 648.948 609.417 655.075C605.269 663.584 609.715 669.328 616.658 673.589C630.457 682.058 644.599 689.8 658.815 697.442C669.606 703.243 681.015 711.041 692.233 715.577C683.075 735.655 670.2 758.329 661.966 778.252C648.317 770.234 634.189 762.577 620.087 754.679C608.682 749.143 597.056 739 585.297 734.752C577.336 731.876 568.891 749.227 567.417 754.925C567.721 756.038 568.054 757.142 568.416 758.237C570.973 765.769 585.53 773.249 592.426 777.549C610.119 788.58 628.252 799.268 646.879 808.632C636.812 828.053 626.972 849.06 617.34 868.826C597.566 859.672 578.213 847.605 559.271 836.78C552.072 832.611 545.236 826.335 537.521 823.29C526.349 818.879 518.493 837.229 516.194 845.397C518.584 855.532 528.972 860.678 537.464 866.243C549.618 873.714 562.223 881.135 574.664 888.118C583.186 892.901 592.202 897.06 600.673 902.017C598.436 907.893 594.196 916.472 591.505 922.3C438.6 851.751 300.753 747.162 164.116 649.849C160.128 647.009 156.214 644.098 152.195 641.292C155.351 633.567 158.178 625.11 161.361 617.169C171.984 624.498 182.53 631.939 192.996 639.489C198.973 643.749 205.063 648.456 211.488 651.981C218.296 655.715 223.279 651.382 226.67 645.604C230.249 639.507 235.745 630.269 228.091 624.782C215.317 614.713 201.54 606.069 187.992 597.098C182.921 593.741 177.662 590.154 172.333 587.306C174.988 579.744 178.613 571.194 181.541 563.621C186.142 551.577 190.648 539.498 195.06 527.384L195.74 527.702C206.976 532.879 245.477 562.835 255.14 560.601C258.563 559.81 260.99 556.542 262.716 553.715C265.623 548.953 268.925 541.86 267.284 536.239C266.748 534.402 265.636 533.541 264.2 532.386C259.045 528.24 252.603 525.251 247.012 521.665C233.557 513.036 220.491 504.088 206.39 496.523C213.127 476.601 224.106 454.453 230.392 434.256C242.758 441.197 255.242 447.925 267.84 454.436C273.672 457.489 279.601 460.72 285.611 463.407C287.79 464.381 290.096 465.031 292.502 464.526C298.119 463.348 300.905 457.903 303.552 453.38C305.729 449.508 307.382 444.322 305.913 439.982C305.078 437.415 303.02 436.28 300.93 434.81C292.829 429.64 283.547 425.973 275.028 421.555C264.248 415.964 253.794 410.051 242.872 404.732C246.497 393.778 250.802 382.778 254.615 371.825Z"/>
  <path fill="#82F292" d="M425.32 532.654C469.58 528.217 502.508 578.013 485.639 617.783C478.317 635.043 460.428 645.572 443.626 652.089C441.439 672.038 437.266 691.816 434.948 711.758C434.426 716.246 433.874 721.431 432.777 725.758C431.108 726.915 428.76 728.214 426.941 729.215C418.12 734.068 409.455 739.953 400.449 744.395C396.608 742.389 392.374 739.584 388.658 737.251C381.539 732.884 330.042 704.783 329.262 701.083C328.256 696.315 359.955 639.721 365.079 630.373C358.539 621.77 354.838 615.018 352.889 604.159C348.393 579.111 362.33 552.694 387.287 545.299C390.798 544.258 396.848 543.722 399.898 542.233C408.974 537.801 415.18 534.204 425.32 532.654Z"/>
  <path fill="#1D1E1F" d="M410.402 555.643C427.26 553.625 442.02 570.208 448.032 584.262C453.268 596.192 453.502 609.723 448.68 621.826C442.827 636.342 429.521 644.139 415.814 650.02C414.169 655.459 412.086 666.976 410.919 672.871C408.486 685.583 405.89 698.263 403.132 710.909C400.187 709.438 397.114 707.556 394.25 705.879C385.043 700.632 374.314 693.742 365.343 688.028C375.841 667.111 387.333 646.399 397.63 625.672C387.705 615.675 383.323 612.766 380.12 597.969C375.389 576.106 389.496 559.702 410.402 555.643Z"/>
  <path fill="#1D1E1F" d="M428.735 541.19C432.786 540.718 438.264 541.451 442.217 542.477C470.224 549.751 487.543 581.235 479.6 608.919C474.474 626.786 465.266 630.743 450.18 639.321L448.959 639.811C448.923 639.14 454.613 630.231 455.585 628.188C459.43 620.109 461.213 611.204 460.776 602.267C459.725 575.914 438.782 545.794 410.014 546.934C417.306 543.517 420.807 542.106 428.735 541.19Z"/>
  <path fill="#1D1E1F" d="M433.208 654.105C433.598 654.14 433.306 654.068 434.276 654.608C434.584 656.208 425.318 714.91 424.424 720.056C420.062 722.978 413.68 726.386 409.009 729.089L408.313 729.286C408.199 728.682 421.643 665.395 422.957 656.698C426.534 655.663 429.569 654.914 433.208 654.105Z"/>
  <path fill="#1D1E1F" d="M358.408 695.565C358.512 695.551 358.615 695.532 358.72 695.523C363.648 695.138 394.684 717.115 400.341 721.512C399.391 724.993 398.528 728.685 397.65 732.201C394.919 730.879 392.352 729.309 389.737 727.771C374.547 719.045 357.371 708.945 342.108 700.633C347.369 699.159 353.154 697.22 358.408 695.565Z"/>
  <path fill="#1D1E1F" d="M389.475 553.503L390.699 553.523C390.32 554.692 386.469 557.061 385.266 558.058C363.776 575.875 368.655 605.757 384.107 625.2C380.277 625.702 378.471 626.082 374.734 627.086L374.273 627.197C370.274 623.721 364.926 615.313 363.363 610.319C356.002 586.812 365.741 561.734 389.475 553.503Z"/>
  <path fill="#1D1E1F" d="M380.649 635.055C381.414 634.921 380.984 634.911 381.922 635.265C379.245 642.191 373.332 653.146 369.876 659.721C365.151 668.548 360.709 677.523 356.557 686.634C351.555 688.198 347.747 689.146 343.178 691.772L342.287 691.643C343.13 689.091 349.075 678.556 350.653 675.524C357.229 662.884 364.58 650.132 371.132 637.526L380.649 635.055Z"/>
  <path fill="#1D1E1F" d="M564.515 134.7C574.769 133.555 587.501 135.784 597.186 139.148C632.494 151.412 658.09 176.636 674.403 209.681C708.486 278.722 689.269 343.972 666.021 412.508C648.785 401.445 629.081 389.915 611.438 379.438C571.204 355.71 530.345 331.787 488.629 310.815C476.38 304.657 462.156 296.486 449.587 291.571C451.665 284.081 453.796 276.615 456.636 269.367C469.334 236.96 477.411 201.636 499.653 173.901C515.1 154.639 539.433 137.471 564.515 134.7Z"/>
  <path fill="#1D1E1F" d="M536.82 67.2111C561.461 64.4649 593.123 70.8172 615.782 80.01C668.758 101.448 707.92 142.483 730.076 194.285C763.542 272.53 746.805 347.513 719.066 424.263C710.704 447.399 703.41 471.247 694.069 494.494C678.153 484.884 669.285 478.406 661.607 461.233C662.932 455.363 665.384 448.71 667.316 442.914C670.386 433.737 673.394 424.539 676.339 415.321C692.42 364.814 708.842 315.257 700.436 261.784C697.58 243.615 694.512 230.67 686.995 213.722C685.825 211.163 684.616 208.621 683.369 206.099C665.307 169.91 635.001 140.524 596.202 127.678C562.14 116.304 524.966 118.83 492.756 134.708C474.086 144.207 458.221 158.419 446.731 175.935C434.688 194.36 428.378 217.459 420.965 238.113C411.444 264.639 403.6 291.587 394.787 318.294C382.026 313.464 360.15 303.652 350.597 294.323C358 265.92 371.101 236.626 378.873 208.377C400.531 129.658 451.711 73.8659 536.82 67.2111Z"/>
  <path fill="#1D1E1F" d="M276.435 316.054C285.254 318.981 297.51 324.572 306.125 328.415C320.986 334.938 335.711 341.766 350.29 348.895C419.608 382.786 486.949 420.578 551.991 462.089C591.448 487.422 629.467 514.593 666.589 543.208C683.407 556.172 700.041 569.639 717.22 582.076C727.605 589.595 738.525 595.272 751.166 597.712C747.458 602.924 744.504 609.832 741.713 615.653C737.321 624.815 733.177 633.862 728.468 642.877L726.113 647.181C701.998 634.333 677.926 617.35 655.423 601.687C621.665 578.191 588.582 554.243 554.582 531.013C461.015 466.331 361.772 410.274 258.072 363.532C264.484 347.82 270.606 331.991 276.435 316.054Z"/>
  <path fill="#1D1E1F" d="M347.016 268.024L347.393 268.733C346.449 271.663 345.47 274.582 344.455 277.488C337.61 277.058 326.938 279.821 323.748 285.888C315.501 301.573 340.029 318.956 350.231 324.724C380.027 341.573 411.807 353.944 445.835 357.963C453.493 358.868 461.582 359.132 469.043 357.309C476.082 355.627 481.647 349.067 478.51 341.908C472.438 328.049 451.577 316.651 438.491 310.508C439.469 308.58 440.463 306.216 441.368 304.216C460.566 311.845 487.472 326.322 505.672 336.123C544.889 357.648 583.68 379.939 622.022 402.985L645.144 416.962C649.784 419.777 655.128 422.814 659.307 426.271C660.521 427.275 660.846 428.228 660.871 429.706C660.912 430.639 660.354 432.378 659.179 432.489C649.25 433.432 638.916 436.534 631.633 443.892C616.736 458.944 632.401 479.332 644.309 490.343C650.687 496.232 657.568 501.552 664.873 506.242C687.234 520.553 729.535 540.245 756.582 540.038C761.184 539.989 768.745 538.092 771.568 534.279C781.861 520.379 758.864 500.472 749.943 492.855C750.674 490.268 751.141 488.383 752.298 485.921L753.235 485.736C771.751 498.738 807.567 518.356 819.899 534.94C823.757 540.128 825.762 545.314 827.495 551.494C805.382 569.993 766.487 593.882 737.52 579.611C720.166 571.062 701.755 555.896 685.93 544.354C659.4 524.884 632.648 505.72 605.678 486.864C543.46 444.278 478.768 405.424 411.943 370.508C372.763 349.566 324.354 324.415 282.672 308.508C295.249 290.763 327.441 277.361 347.016 268.024Z"/>
  <path fill="#1D1E1F" d="M149.316 649.796C156.207 653.996 165.984 661.238 172.614 665.986L213.19 695.317C250.866 722.592 288.815 749.488 327.031 776.001C375.804 809.36 425.532 841.727 476.662 871.403C512.96 892.47 550.491 910.146 587.316 930.006C583.079 938.89 577.555 951.853 572.944 960.036C564.887 972.395 555.753 967.557 544.981 962.303C538.357 959.072 532.063 955.258 525.56 951.839C502.674 940.082 480.213 927.519 458.217 914.173C372.158 863.115 289.22 806.972 209.843 746.044C192.555 732.727 174.426 719.503 158.818 704.281C149.003 694.708 141.798 679.825 144.088 665.895C145.01 660.287 147.218 655.049 149.316 649.796Z"/>
  <path fill="#1D1E1F" d="M515.702 136.505L516.246 136.798C514.866 138.607 508.114 143.166 505.735 145.173C498.151 151.62 491.327 158.911 485.396 166.906C478.537 176.249 471.837 188.918 467.125 199.577C451.283 235.417 440.701 273.982 427.453 310.872C422.399 313.748 410.917 318.251 405.323 320.53C404.752 320.394 405.081 320.543 404.546 319.775C404.878 317.773 410.433 300.749 411.419 297.528C417.008 279.589 422.886 261.741 429.05 243.992C447.98 187.878 456.211 159.014 515.702 136.505Z"/>
  <path fill="#1D1E1F" d="M737.147 759.453L737.74 759.509C738.041 760.524 728.038 780.289 726.794 782.901C720.808 795.442 715.033 808.084 709.474 820.82C691.763 829.306 674.265 841.323 656.421 849.89C650.022 852.962 643.472 856.164 637.269 859.578L637.039 859.66L636.751 859.28C643.283 847.389 648.933 835.64 654.935 823.488C660.564 812.089 666.426 801.013 671.744 789.438C678.329 787.445 688.902 782.079 695.539 778.971L737.147 759.453Z"/>
  <path fill="#1D1E1F" d="M772.44 685.588L772.77 686.191C762.864 705.961 754.087 726.343 744.076 746.114C724.336 756.995 698.667 766.744 678.576 777.474L678.215 777.049C679.453 773.565 685.744 761.732 687.664 757.863C694.996 743.145 702.209 728.367 709.302 713.531C716.728 710.547 725.674 706.162 733.107 702.788C746.086 696.757 759.2 691.022 772.44 685.588Z"/>
  <path fill="#1D1E1F" d="M825.066 570.545L825.373 571.208L802.679 623.212C786.791 631.559 759.268 640.819 741.512 648.443L741.204 647.659C749.119 632.765 757.968 613.262 764.806 597.735C790.263 594.58 804.428 584.107 825.066 570.545Z"/>
  <path fill="#1D1E1F" d="M655.422 442.148C656.701 443.07 651.102 456.458 651.636 461.318C655.036 492.26 723.059 527.639 744.425 500.479C751.003 505.461 759.7 513.853 763.352 521.606C765.635 526.454 762.983 528.55 758.47 529.976C744.466 531.455 728.009 526.089 715.149 520.906C688.58 510.198 642.285 488.571 634.333 458.547C637.808 447.981 645.243 444.269 655.422 442.148Z"/>
  <path fill="#1D1E1F" d="M678.701 883.436C679.157 883.523 678.85 883.43 679.498 883.973C664.314 919.78 654.376 922.72 622.563 941.883C611.375 948.553 600.259 955.344 589.218 962.255L588.647 962.306C588.442 960.963 605.082 925.801 607.206 921.852C615.558 918.244 629.074 910.127 637.381 905.437C650.954 897.733 664.732 890.397 678.701 883.436Z"/>
  <path fill="#1D1E1F" d="M796.297 635.547C796.356 637.314 781.071 669.194 779.146 672.604C771.277 676.534 761.041 680.682 752.891 684.294C740.599 689.784 728.368 695.41 716.2 701.169C715.823 698.195 732.615 668.319 734.804 660.596C745.503 656.349 756.082 651.769 766.767 647.51C776.74 643.534 786.535 640.076 796.297 635.547Z"/>
  <path fill="#1D1E1F" d="M702.961 834.067C703.062 834.297 703.163 834.527 703.264 834.756C699.367 843.23 689.783 860.848 687.157 868.907C678.525 873.725 668.243 878.78 659.355 883.518C643.712 891.787 628.266 900.423 613.031 909.42L612.728 908.82C617.503 899.416 621.554 889.657 626.401 880.287C627.57 878.027 628.678 875.744 629.685 873.406C638.594 869.387 647.375 864.255 656.084 859.766C672.059 851.532 687.432 843.089 702.961 834.067Z"/>
  <path fill="#1D1E1F" d="M533.331 830.903C537.89 831.743 568.259 851.524 574.599 855.209C587.318 862.461 600.097 869.606 612.936 876.643C609.103 882.985 606.985 887.674 604.52 894.615C584.316 884.048 541.116 861.833 524.686 846.466C526.39 842.197 530.436 834.367 533.331 830.903Z"/>
  <path fill="#1D1E1F" d="M340.038 286.483C340.775 286.479 341.245 286.595 341.977 286.708C342.806 288.804 340.959 298.038 343.081 300.235C355.186 312.767 384.238 324.396 399.922 329.44C408.202 332.103 427.705 321.772 433.946 317.948C446.652 325.136 461.497 332.615 470.143 344.764L470.374 345.578C467.929 355.755 417.577 343.387 408.238 340.007C382.515 330.698 349.096 319.988 332.435 296.97C328.636 291.722 336.076 287.717 340.038 286.483Z"/>
  <path fill="#1D1E1F" d="M584.254 742.948C586.295 743.592 607.088 756.338 610.559 758.498C625.576 767.843 643.265 776.304 657.869 785.681C656.545 788.262 651.38 799.22 649.99 800.53C636.802 794.04 583.302 765.169 575.276 755.34C577.499 750.918 580.275 745.918 584.254 742.948Z"/>
  <path fill="#1D1E1F" d="M623.282 648.195C626.61 649.539 643.268 660.417 647.385 662.942C665.645 674.235 684.073 685.254 702.663 695.995C700.517 700.148 698.236 704.229 695.824 708.234C678.764 698.559 661.61 689.052 644.364 679.712C637.623 675.993 619.566 667.033 615.499 661.423C617.589 656.689 620.389 652.461 623.282 648.195Z"/>
  <path fill="#1D1E1F" d="M788.486 254.008C788.515 254.032 788.547 254.051 788.572 254.079C790.722 256.398 790.913 283.31 790.822 288.08C782.656 290.286 767.566 296.061 759.324 299.027L758.223 298.836C758.736 287.015 758.312 276.116 757.432 264.36C767.375 261.306 778.894 257.852 788.486 254.008Z"/>
  <path fill="#1D1E1F" d="M763.991 173.023C766.809 174.11 776.835 200.665 778.252 204.801C768.744 207.985 759.197 211.051 749.613 213.998C748.247 214.488 748.92 214.521 747.57 214.14C744.023 203.322 739.273 192.717 736.107 182.834C744.753 179.335 755.067 176.07 763.991 173.023Z"/>
  <path fill="#1D1E1F" d="M779.945 213.521L780.557 213.63C782.417 216.186 787.155 241.252 787.97 245.694C778.247 248.538 767.828 252.039 758.114 255.122L757 255.332C756.63 254.745 751.131 227.302 750.16 223.159C759.147 219.665 770.235 217.125 779.945 213.521Z"/>
  <path fill="#1D1E1F" d="M747.506 457.58C747.455 459.633 734.417 493.415 732.435 497.761C724.302 501.544 714.104 499.941 705.634 498.242L704.386 497.721C703.87 494.441 713.135 472.911 714.852 468.831C722.722 467.112 738.65 460.463 747.506 457.58Z"/>
  <path fill="#1D1E1F" d="M789.193 298.015L790.065 298.278C790.026 306.912 787.863 321.003 786.258 329.583C775.109 334.042 765.083 337.988 753.604 341.579C752.982 341.439 753.311 341.581 752.69 341.011C754.892 329.718 756.276 320.33 757.613 308.886C768.163 305.539 778.226 301.367 789.193 298.015Z"/>
  <path fill="#1D1E1F" d="M740.507 135.562C744.208 137.218 757.98 160.484 760.573 164.892C751.879 168.213 742.568 171.35 733.763 174.472L732.745 174.71C731.974 174.169 716.336 148.4 714.412 145.352C723.237 141.3 731.305 138.64 740.507 135.562Z"/>
  <path fill="#1D1E1F" d="M203.588 504.815C218.739 513.744 233.332 523.352 248.297 532.572C252.042 534.88 256.433 537.189 259.678 540.078C258.441 543.915 255.68 548.507 253.681 552.129C248.866 552.437 207.05 523.254 198.172 518.911C200.092 514.162 201.918 509.67 203.588 504.815Z"/>
  <path fill="#1D1E1F" d="M169.412 595.982C179.147 600.028 215.669 625.095 223.616 632.612C221.632 637.018 219.605 640.163 217.113 644.274C216.852 644.52 217.077 644.361 216.142 644.73C198.232 633.608 182.101 620.433 164.543 608.615C166.219 604.424 167.842 600.213 169.412 595.982Z"/>
  <path fill="#1D1E1F" d="M238.853 413.021C247.541 416.706 260.453 424.18 269.227 428.562C275.736 431.813 293.022 439.909 297.912 443.83C296.21 448.523 294.504 451.654 291.836 455.787C287.211 456.265 241.846 430.124 234.143 426.042C235.374 421.589 237.16 417.321 238.853 413.021Z"/>
  <path fill="#1D1E1F" d="M708.116 101.627C714.632 105.919 729.814 122.123 735.107 128.02C727.446 130.63 719.294 133.843 711.667 136.687L708.082 138.356C702.346 129.494 692.25 119.135 684.671 111.742C689.484 108.695 702.058 104.149 708.116 101.627Z"/>
  <path fill="#1D1E1F" d="M773.615 378.088C773.578 379.992 764.819 405.896 763.581 409.28C754.876 413.562 741.245 417.185 731.21 421.559C730.474 418.543 738.78 395.464 740.288 391.009C751.674 387.454 762.808 383.138 773.615 378.088Z"/>
  <path fill="#1D1E1F" d="M783.504 340.067C784.809 342.496 778.115 363.467 777.003 367.618C769.433 369.9 751.64 377.445 743.252 380.649L743.102 380.529C742.872 379.608 749.949 354.828 750.834 351.881C762.253 348.096 772.303 344.383 783.504 340.067Z"/>
  <path fill="#1D1E1F" d="M759.354 420.61L759.599 420.867C759.639 422.487 752.04 443.762 751.073 446.622C740.781 450.428 728.906 455.258 718.611 458.534L718.228 458.228C717.899 456.135 726.257 434.959 727.634 431.319C736.311 429.146 750.116 423.669 759.354 420.61Z"/>
  <path fill="#1D1E1F" d="M670.607 78.4213C675.841 77.836 695.364 91.9613 700.238 95.7171C693.805 98.1641 687.622 101.017 681.342 103.832C679.526 104.774 678.014 106.041 676.263 104.571C668.534 98.0819 660.809 92.1797 652.332 86.7217C658.569 84.1309 664.501 81.3006 670.607 78.4213Z"/>
  <path fill="#1D1E1F" d="M626.557 60.9856C633.06 61.2171 655.092 70.102 661.704 73.0595C658.553 75.1224 651.432 78.4162 647.814 80.2103C646.813 80.8031 645.84 81.2679 644.801 81.7814C642.117 81.4905 616.597 69.6234 612.51 67.7947C618.178 65.8559 621.693 64.4583 626.557 60.9856Z"/>
  <path fill="#1D1E1F" d="M566.616 54.7114C580.64 53.4048 600.641 55.3985 614.188 58.3085C610.311 59.653 603.348 63.887 600.359 63.402C590.269 61.0578 579.755 58.6914 569.436 57.6366C563.021 56.9809 555.92 56.8975 549.396 56.5663C555.062 55.3637 560.842 55.1121 566.616 54.7114Z"/>
  <path fill="#82F292" d="M177.139 785.372C178.828 785.862 180.688 786.394 181.663 788.009C182.239 788.962 182.211 790.09 181.95 791.138C181.094 794.571 135.773 833.647 130.541 836.631C126.017 835.109 123.745 831.737 127.902 828.269C135.879 821.617 143.52 814.132 151.507 807.55C159.811 800.708 168.465 791.457 177.139 785.372Z"/>
  <path fill="#82F292" d="M850.058 681.277C856.38 681.005 898.05 679.831 901.141 681.568C901.888 681.988 902.332 683.035 902.446 683.844C902.65 685.297 902.528 686.622 901.425 687.708C898.425 690.664 888.118 689.707 883.968 689.74C877.465 689.712 837.149 691.247 834.663 689.78C833.66 689.188 832.937 688.001 832.748 686.869C832.544 685.686 832.859 684.472 833.612 683.537C835.899 680.67 846.135 681.377 850.058 681.277Z"/>
  <path fill="#82F292" d="M813.136 749.579L858.018 756.578C862.669 757.289 879.408 758.788 882.011 761.267C883.453 764.491 882.131 766.042 879.465 767.838C874.209 767.522 868.19 766.469 862.929 765.691C846.632 763.281 830.278 760.823 814.054 757.99C809.044 757.115 808.923 752.531 813.136 749.579Z"/>
  <path fill="#82F292" d="M792.768 819.765C801.281 819.659 840.103 840.551 850.634 843.775C856.34 845.521 860.389 847.9 855.48 853.764C855.294 853.8 855.111 853.856 854.923 853.872C852.208 854.105 795.664 829.606 791.917 826.742C790.836 825.916 790.599 825.04 790.409 823.724C790.902 821.699 791.354 821.413 792.768 819.765Z"/>
  <path fill="#82F292" d="M220.775 819.893C222.717 819.973 224.173 820.139 225.606 821.721C226.391 822.594 226.719 823.786 226.489 824.938C225.694 828.968 202.198 851.325 198.673 856.602C197.706 858.049 192.335 863.578 190.967 864.697C189.411 864.414 187.405 863.965 186.296 862.732C185.425 861.765 185.021 860.938 185.115 859.611C185.33 856.585 216.697 822.923 220.775 819.893Z"/>
  <path fill="#82F292" d="M257.949 846.362C260.218 846.294 266.887 847.729 264.67 851.005C257.087 862.215 249.199 877.412 240.691 887.731C236.992 888.164 233.277 884.649 234.952 882.141C239.976 874.617 252.54 851.318 257.949 846.362Z"/>
  <path fill="#82F292" d="M763.535 877.738C769.058 878 784.624 889.536 791.004 892.217C796.045 894.336 803.31 899.176 795.836 904.141C790.57 903.601 769.52 889.547 763.567 886.418C759.009 884.022 760.736 880.751 763.535 877.738Z"/>
  <path fill="#82F292" d="M316.68 875.97C319.083 876.086 323.237 878.224 322.371 880.493C320.06 886.547 312.709 901.224 308.587 905.712C306.156 905.675 305.029 905.437 303.25 903.922C302.863 903.028 302.393 902.424 302.6 901.625C304.1 895.819 312.609 879.426 316.68 875.97Z"/>
</svg>
